<?xml version="1.0" standalone="no"?>
<!DOCTYPE svg PUBLIC "-//W3C//DTD SVG 20010904//EN"
 "http://www.w3.org/TR/2001/REC-SVG-20010904/DTD/svg10.dtd">
<svg version="1.0" xmlns="http://www.w3.org/2000/svg" width="768.000000pt" height="768.000000pt" viewBox="0 0 768.000000 768.000000" preserveAspectRatio="xMidYMid meet">
<metadata>
Created by potrace 1.14, written by Peter Selinger 2001-2017
</metadata>
<g transform="translate(0.000000,768.000000) scale(0.100000,-0.100000)" fill="#000000" stroke="none">
<path d="M480 7440 l0 -240 -240 0 -240 0 0 -3360 0 -3360 240 0 240 0 0 -240
0 -240 3360 0 3360 0 0 240 0 240 240 0 240 0 0 3360 0 3360 -240 0 -240 0 0
240 0 240 -3360 0 -3360 0 0 -240z m5280 -1920 l0 -240 240 0 240 0 0 -1920 0
-1920 -240 0 -240 0 0 240 0 240 -240 0 -240 0 0 1440 0 1440 -480 0 -480 0 0
-1680 0 -1680 -240 0 -240 0 0 240 0 240 -240 0 -240 0 0 1440 0 1440 -480 0
-480 0 0 -1680 0 -1680 -240 0 -240 0 0 240 0 240 -240 0 -240 0 0 1680 0
1680 240 0 240 0 0 240 0 240 1920 0 1920 0 0 -240z"></path>
</g>
</svg>
